<?xml version="1.0" encoding="utf-8"?>
<svg version="1.1" id="Layer_1" x="0px" y="0px" viewBox="0 0 824 689" style="enable-background:new 0 0 824 689;" xmlns="http://www.w3.org/2000/svg">
  <style type="text/css">
	.st0{fill:#FFFFFF;}
</style>
  <g>
    <path class="st0" d="M201,331.8c-2.8,0-5.6-1-7.7-3l-25.6-23.9l-25.6,23.9c-3.9,3.7-9.9,4.1-14.3,0.9c-4.4-3.1-5.9-8.9-3.7-13.8 l14-31.2l-29.2-14.1c-4.9-2.3-7.4-7.8-6-13c1.3-5.2,6.2-8.8,11.6-8.5l35.3,1.9l7-30.3c1.2-5.1,5.8-8.8,11-8.8s9.8,3.6,11,8.8 l7,30.3l35.3-1.9c5.4-0.3,10.2,3.3,11.6,8.5c1.3,5.2-1.2,10.7-6,13l-29.2,14.1l14,31.2c2.2,4.9,0.6,10.7-3.7,13.8 C205.6,331.1,203.3,331.8,201,331.8z"/>
  </g>
  <g>
    <path class="st0" d="M694,388.2c-2.4,0-4.8-0.9-6.6-2.6l-23.8-22.2l-23.8,22.2c-3.4,3.1-8.5,3.5-12.2,0.8 c-3.7-2.7-5.1-7.6-3.2-11.8l13.1-29.1l-27.2-13.1c-4.1-2-6.3-6.6-5.2-11.1c1.1-4.5,5.3-7.5,9.9-7.2l32.7,1.7l6.5-28.1 c1-4.4,4.9-7.5,9.4-7.5c4.5,0,8.4,3.1,9.4,7.5l6.5,28.1l32.7-1.7c4.6-0.3,8.7,2.8,9.9,7.2c1.1,4.5-1,9.1-5.2,11.1l-27.2,13.1 l13.1,29.1c1.9,4.2,0.5,9.1-3.2,11.8C698,387.6,696,388.2,694,388.2z"/>
  </g>
  <g>
    <path class="st0" d="M456.2,194.9c-3.4,0-6.8-1.3-9.4-3.7l-28.4-26.6l-28.4,26.6c-4.8,4.5-12.1,5-17.4,1.1 c-5.3-3.8-7.2-10.9-4.5-16.8l15.6-34.7l-32.4-15.6c-5.9-2.8-9-9.5-7.4-15.8c1.6-6.4,7.5-10.7,14.1-10.3l39.3,2.1l7.8-33.7 c1.4-6.2,7-10.7,13.4-10.7c6.4,0,12,4.4,13.4,10.7l7.8,33.7l39.3-2.1c6.5-0.4,12.4,4,14.1,10.3c1.6,6.4-1.4,13-7.4,15.8l-32.4,15.6 l15.6,34.7c2.7,6,0.8,13-4.5,16.8C461.8,194.1,459,194.9,456.2,194.9z"/>
  </g>
  <path class="st0" d="M243,354.4H92.7c-19.5,0-35.3,15-35.3,33.5v237.3c0,18.5,15.8,33.5,35.3,33.5H243c19.5,0,35.3-15,35.3-33.5V388 C278.3,369.5,262.5,354.4,243,354.4z M210.4,560.1c-1.1,2.1-4.1,6.4-6.5,6.8c-8,1.4-16.2,0.5-24.4,0.5c-13.6,0-27.2-0.7-40.8-1.4 c-4.5-0.4-10.1-0.9-11.4-6.2c-0.5-1.8-0.7-3.5-0.7-5.1c0-3.5,1.2-6.7,4.5-9.7c12.1-10.6,23.9-21.6,35.4-32.9 c4.5-4.4,8.9-9.4,8.9-16.2c0-0.3,0-0.5,0-0.8c-0.2-4.2-1.9-6.7-5.5-6.7c-0.6,0-1.1,0.1-1.8,0.2c-4.8,0.9-9.9,2.5-13.8,5.1 c-3.2,2-5.7,3-7.8,3c-3.3,0-6-2-9.3-5.7c-1.1-1.4-2.2-3-3.4-4.6c-2.3-3.4-3.5-5.7-3.5-7.5c0-2.4,1.9-4.2,5.8-7.3 c8.4-6.5,19.4-9.8,30.4-9.8c11.2,0,22.4,3.5,30.8,10.2c7.7,6.1,11.9,15.1,11.9,24.4c0,6.4-2,12.8-6.2,18.6 c-6.2,8.5-18.8,21.1-21.2,23.4c-2.4,2.3-3.7,3.4-5,4.2c0.1,0.1,1.8,0.2,4.1,0.2c2.6,0,6,0,8.9,0c1.7,0,3.2,0,4.4,0.1 c2.6,0,5.4,0.4,8,0.9c6.1,1.6,9.8,5.9,9.8,11.1C211.8,556.3,211.3,558.3,210.4,560.1z"/>
  <path class="st0" d="M490.8,222.7H340.5c-19.5,0-35.3,15-35.3,33.5v369.1c0,18.5,15.8,33.5,35.3,33.5h150.3 c19.5,0,35.3-15,35.3-33.5V256.2C526.1,237.7,510.3,222.7,490.8,222.7z M466.9,497.2c-0.4,2.2-4.1,4.9-6.6,5.5 c-6.6,1.4-13.6,2.2-20.7,2.6c-7.3,0.4-14.4,0.7-21.6,0.7c-11.1,0-22.1-0.7-32.9-2.9c-9.3-1.9-11.7-5.7-11.7-11.7 c0-2.3,0.3-5,0.9-7.9c0.2-2,3.8-4.7,6.2-5.3c4.9-1,10-1,15.1-1c4.1,0,7-1.8,7.3-5.7c0.9-13,1.3-25.9,1.9-38.9 c-5.3,1.4-9.4,3-13.6,3.4c-0.4,0-0.7,0-1.2,0c-8.3,0-11.9-6.2-15.5-12.4c-0.9-1.6-1.3-3.1-1.3-4.6c0-3.5,2.2-6.6,5.3-9.2 c7.9-6.5,15.8-13,24.1-19c4.9-3.4,10.4-4.6,16.3-4.6c1.8,0,3.6,0.1,5.4,0.3c8.1,0.8,13.2,4.7,14.3,12.8c1.7,10.5,2.1,21.5,2.6,32.2 c0.4,13.2,0.2,26.1,0.4,39.3c0,4.1,1.7,6.4,5.8,6.4c0.4,0,1,0,1.5-0.1c1.5-0.4,3-0.2,4.7,0c10.2,0.9,14.5,4.8,14.5,12.5 C468,491.7,467.6,494.2,466.9,497.2z"/>
  <path class="st0" d="M738.6,412.9H588.3c-19.5,0-35.3,15-35.3,33.5v178.8c0,18.5,15.8,33.5,35.3,33.5h150.3 c19.5,0,35.3-15,35.3-33.5V446.5C773.9,428,758,412.9,738.6,412.9z M692,580.4c-8,6-19.5,8.9-31,8.9c-11.6,0-23.3-3.1-31.4-9.1 c-3.2-2.4-4.7-4.3-4.7-6.7c0-1.7,0.9-3.6,2.5-6l2.1-3c3.2-3.9,5.1-5.7,7.6-5.7c1.8,0,4,0.9,7.3,2.7c4.3,2.3,8.7,3.6,13.2,3.6 c3.6,0,7.2-0.7,10.8-2.4c3.7-1.6,6.3-5.4,6.3-8.7c0-0.5-0.1-0.9-0.2-1.4c-0.7-3.3-4.6-6.3-9.5-6.5c-4.2,0-8.4,0.7-12.8,1 c-1.1,0.2-3,0.5-3.2,0.3c-3.9-4.2-8.2-8-11-12.6c-0.5-0.8-0.7-1.7-0.7-2.5c0-2.9,2.7-5.3,5.1-7.3c4.4-3.7,8.9-7,13.7-10.6 c-5.6-0.5-10.9-0.7-16.1-1.2c-8.2-0.7-11.2-5.2-11.2-10.7c0-2,0.4-4.1,1.1-6.2c1.1-3.7,4.7-4.7,8.2-5c10.9-0.5,21.7-1,32.6-1.2 c0.7,0,1.4,0,2.1,0c4.5,0,8.8,0.4,13.3,0.7c5.1,0.5,10.7,2,12.3,7.2c0.6,2.2,1,4.3,1,6.4c0,3.8-1.2,7.5-4.5,10.6 c-3.2,2.8-6.8,5.3-10.3,8c-1.1,0.8-2.3,1.5-2.6,1.7c5.4,4.3,12.1,8,16.5,13.1c4.4,5.2,6.5,11.6,6.5,17.9 C704.7,564.9,700.2,574.3,692,580.4z"/>
</svg>