<?xml version="1.0" encoding="utf-8"?>
<svg version="1.1" id="Layer_1" x="0px" y="0px" viewBox="0 0 25 25" style="enable-background:new 0 0 25 25;" xmlns="http://www.w3.org/2000/svg">
  <style type="text/css">
	.st0{fill:#FFFFFF;}
</style>
  <path class="st0" d="M18.5,9.6c0,1.8-0.9,3.2-2.3,4.3c-0.6,0.4-1.1,0.9-1.6,1.4C14,15.8,13.4,16,12.8,16c-1,0-2-0.6-2.3-1.6 c-0.2-0.6-0.2-1.2-0.2-1.8c0-0.7,0.3-1.2,1-1.4c0.4-0.1,0.9-0.3,1.3-0.5c0.6-0.3,1-0.8,1-1.4c0-0.1,0-0.3-0.1-0.4 c-0.2-0.4-0.5-0.6-1-0.6c-0.3,0-0.6,0.1-0.9,0.3C11.1,8.9,10.6,9,10,9C9.2,9,8.4,8.7,7.8,8.1C7.5,7.8,7.3,7.4,7.3,6.9 c0-0.3,0.1-0.6,0.3-0.9c0.3-0.5,0.7-1,1.2-1.3c1.2-0.8,2.5-1.2,3.7-1.2c0.9,0,1.8,0.2,2.7,0.7c2.1,1,3.2,2.6,3.3,5 C18.5,9.3,18.5,9.5,18.5,9.6z M12.9,16.8c1.2,0,2.2,1.2,2.3,2.5c0,1.3-1.3,2.6-2.6,2.6c-1.7,0-2.5-0.8-2.5-2.7 C10.1,17.6,11,16.8,12.9,16.8z"/>
</svg>