<?xml version="1.0" encoding="utf-8"?>
<svg version="1.1" id="Layer_1" x="0px" y="0px" viewBox="0 0 707 708" style="enable-background:new 0 0 707 708;" xmlns="http://www.w3.org/2000/svg">
  <g style="fill: white;">
    <path class="st3" d="M575,169H131c-20.4,0-37-16.6-37-37s16.6-37,37-37h444c20.4,0,37,16.6,37,37S595.4,169,575,169z"/>
    <path class="st3" d="M575,391H131c-20.4,0-37-16.6-37-37s16.6-37,37-37h444c20.4,0,37,16.6,37,37S595.4,391,575,391z"/>
    <path class="st3" d="M575,613H131c-20.4,0-37-16.6-37-37s16.6-37,37-37h444c20.4,0,37,16.6,37,37S595.4,613,575,613z"/>
  </g>
</svg>