<?xml version="1.0" encoding="utf-8"?>
<svg id="MusicOn" viewBox="0 0 500 500" xmlns="http://www.w3.org/2000/svg">
  <path d="M 359.825 403.434 L 359.825 389.714 L 360.015 53.274 L 184.595 53.274 L 184.815 252.434 C 173.245 245.704 156.075 244.684 139.195 250.984 C 113.915 260.434 98.895 282.684 105.635 300.694 C 112.375 318.704 138.335 325.694 163.635 316.224 C 186.735 307.594 201.255 288.224 198.445 271.224 L 198.805 271.224 L 198.525 95.074 L 346.015 95.074 L 345.885 384.344 C 334.325 377.634 317.185 376.624 300.335 382.904 C 275.045 392.314 260.005 414.564 266.735 432.584 C 273.465 450.604 299.415 457.584 324.735 448.164 C 347.735 439.584 362.265 420.394 359.635 403.434 Z" style="stroke: white; fill: white; stroke-linejoin: round; stroke-width: 13px;"/>
</svg>