<?xml version="1.0" encoding="utf-8"?>
<svg version="1.1" id="Layer_1" x="0px" y="0px" width="1572.157px" height="512px" viewBox="523.575 147.672 508.892 215.931" enable-background="new 0 0 1572.157 512" xmlns="http://www.w3.org/2000/svg">
  <g>
    <path fill="white" d="M879.659,247.366c0.131-8.968-37.211-34.764-37.211-34.764l20.891-11.658 c-7.696-7.923-48.751-13.752-48.751-13.752l12.729-19.766c-7.497-7.716-49.207,10.214-49.207,10.214l1.733-23.153 c-10.365-0.15-38.473,31.648-38.473,31.648l-9.578-21.044c-9.04,8.78-19.006,45.638-19.006,45.638l-18.612-13.917 c-5.807,12.304,4.732,48.978,4.732,48.978l-23.299-3.408c1.647,12.323,27.304,40.902,27.304,40.902l-22.568,8.077 c5.743,10.567,43.54,23.262,43.54,23.262l-16.584,17.902c12.079,8.255,49.717,0.102,49.717,0.102l-6.718,23.824 c10.988,0.012,44.421-23.28,44.421-23.28l4.771,24.483c10.234-4.993,28.865-41.522,28.865-41.522l15.25,19.724 c6.807-9.652,6.618-50.442,6.618-50.442l22.313,10.642c6.432-13.552-17.227-48.004-17.227-48.004L879.659,247.366z M811.035,256.159c-0.268,18.455-15.443,33.198-33.898,32.933c-18.455-0.267-33.198-15.443-32.931-33.898 c0.266-18.454,15.442-33.199,33.898-32.932C796.557,222.528,811.301,237.704,811.035,256.159z"/>
    <path fill="white" d="M684.813,274.208c2.631-11.201-20.676-33.206-20.676-33.206l18.146-4.449 c-1.353-6.746-33.518-20.048-33.518-20.048l13.778-12.116c-7.052-4.698-38.772-2.431-38.772-2.431l6.347-16.875 c-6.868-4.573-35.24,15.61-35.24,15.61l-2.444-17.639C584.64,184.618,568.707,213,568.707,213l-10.582-14.229 c-5.356,8.045-6.871,37.287-6.871,37.287l-16.203-7.424c-2.365,10.161,11.465,35.955,11.465,35.955l-18.019,1.212 c3.227,8.97,27.081,26.25,27.081,26.25l-15.614,9.701c6.014,6.995,36.402,10.402,36.402,10.402l-9.539,16.104 c10.389,4.236,37.289-7.96,37.289-7.96l-1.186,18.947c8.24-1.768,29.54-24.633,29.54-24.633l7.534,17.583 c6.866-5.398,14.931-35.797,14.931-35.797l14.62,12.321c3.542-8.337-3.193-38.886-3.193-38.886L684.813,274.208z M608.54,275.94 c-9.341,1.874-18.431-4.18-20.305-13.521c-1.873-9.342,4.181-18.432,13.522-20.305s18.432,4.181,20.304,13.521 C623.936,264.978,617.881,274.067,608.54,275.94z"/>
    <path fill="white" d="M995.873,226.917l15.94-9.742c-3.336-6.018-38.02-8.94-38.02-8.94l9.454-15.723 c-8.143-2.337-37.682,9.441-37.682,9.441l0.931-18.006c-7.931-2.275-28.848,25.563-28.848,25.563l-7.676-16.068 c-6.954,3.854-13.53,35.732-13.53,35.732l-14.398-10.35c-2.663,9.291,4.762,37.616,4.762,37.616l-17.694-2.16 c0.829,10.4,21.83,30.784,21.83,30.784l-16.804,6.618c5.799,7.572,33.767,16.803,33.767,16.803l-11.935,13.979 c7.853,4.841,37.841-1.126,37.841-1.126l-4.208,18.236c11.189,0.888,33.121-18.895,33.121-18.895l4.617,18.417 c7.315-4.185,20.679-32.434,20.679-32.434l12.512,14.471c4.906-7.225,3.371-38.639,3.371-38.639l17.667,7.309 c0.848-9.018-14.833-36.087-14.833-36.087l18.906-1.428C1024.753,240.821,995.873,226.917,995.873,226.917z M953.49,277.073 c-8.336,4.616-18.832,1.604-23.451-6.728c-4.618-8.334-1.604-18.831,6.728-23.451c8.332-4.617,18.83-1.605,23.45,6.727 C964.832,261.957,961.824,272.455,953.49,277.073z"/>
  </g>
</svg>