<?xml version="1.0" encoding="utf-8"?>
<svg version="1.1" id="Layer_1" x="0px" y="0px" viewBox="0 0 225 226" style="enable-background:new 0 0 225 226;" xmlns="http://www.w3.org/2000/svg">
  <style type="text/css">
	.st0{fill:#FFFFFF;}
</style>
  <path class="st0" d="M212.5,103.9c0.1-9-37.2-34.8-37.2-34.8l20.9-11.7c-7.7-7.9-48.8-13.8-48.8-13.8l12.7-19.8 c-7.5-7.7-49.2,10.2-49.2,10.2l1.7-23.2c-10.4-0.1-38.5,31.6-38.5,31.6l-9.6-21c-9,8.8-19,45.6-19,45.6L27,53.3 c-5.8,12.3,4.7,49,4.7,49L8.4,98.9c1.6,12.3,27.3,40.9,27.3,40.9l-22.6,8.1c5.7,10.6,43.5,23.3,43.5,23.3L40.1,189 c12.1,8.3,49.7,0.1,49.7,0.1L83.1,213c11,0,44.4-23.3,44.4-23.3l4.8,24.5c10.2-5,28.9-41.5,28.9-41.5l15.2,19.7 c6.8-9.7,6.6-50.4,6.6-50.4l22.3,10.6c6.4-13.6-17.2-48-17.2-48L212.5,103.9z M143.8,112.7c-0.3,18.5-15.4,33.2-33.9,32.9 c-18.5-0.3-33.2-15.4-32.9-33.9c0.3-18.5,15.4-33.2,33.9-32.9C129.4,79.1,144.1,94.2,143.8,112.7z"/>
</svg>