<?xml version="1.0" encoding="utf-8"?>
<svg version="1.1" id="Layer_1" x="0px" y="0px" width="25px" height="25px" viewBox="0 0 25 25" enable-background="new 0 0 25 25" xmlns="http://www.w3.org/2000/svg">
  <path fill="#F5F5F5" d="M21.11,3.908c-4.735-4.735-12.412-4.735-17.147,0c-4.735,4.735-4.734,12.412,0,17.147 c4.735,4.735,12.412,4.735,17.147,0S25.846,8.643,21.11,3.908z M19.625,18.547L18.672,19.5c-0.563,0.563-1.492,0.558-2.056-0.006 l-3.989-3.988L8.64,19.494c-0.563,0.563-1.493,0.569-2.057,0.006L5.63,18.547c-0.563-0.563-0.565-1.501-0.002-2.064l3.989-3.988 L5.672,8.55C5.11,7.987,5.104,7.057,5.666,6.495L6.62,5.541c0.563-0.563,1.5-0.565,2.064-0.001l3.944,3.944l3.945-3.944 c0.563-0.563,1.501-0.563,2.063,0.001l0.954,0.954c0.563,0.563,0.558,1.492-0.007,2.055l-3.944,3.945l3.989,3.988 C20.19,17.045,20.188,17.983,19.625,18.547z"/>
</svg>